<?xml version="1.0" standalone="no"?><!DOCTYPE svg PUBLIC "-//W3C//DTD SVG 1.1//EN" "http://www.w3.org/Graphics/SVG/1.1/DTD/svg11.dtd"><svg t="1569315283002" class="icon" viewBox="0 0 1024 1024" version="1.1" xmlns="http://www.w3.org/2000/svg" p-id="3200" xmlns:xlink="http://www.w3.org/1999/xlink" width="128" height="128"><defs><style type="text/css"></style></defs><path d="M717.4 723.7c-72-50.3-167.1-78.1-267.8-78.1s-195.8 27.7-267.8 78.1c-36.2 25.3-64.9 55.1-85.1 88.5C75 848.1 64 886.3 64 926v36h771.2v-36c0-39.7-11-77.9-32.7-113.8-20.2-33.4-48.9-63.2-85.1-88.5zM447.9 571.5c75.4 0 134.4-82.9 134.4-188.7S523.3 194 447.9 194s-134.4 82.9-134.4 188.7 59 188.8 134.4 188.8zM927.3 682.2c-20.2-33.4-48.9-63.2-85.1-88.5-59.6-41.7-135.2-67.9-216.6-75.6-8.2 18.9-18.2 36.6-29.8 52.6-6.1 8.4-12.6 16.1-19.4 23.3 16.5 4.2 32.7 9.3 48.6 15.1 54.5 20 103.5 48.8 145.7 85.5 42.5 37 76 80.2 99.4 128.4 1.5 3 2.9 6 4.2 9H960v-36c0-39.7-11-77.9-32.7-113.8zM595.8 202.3c36.2 49.6 56.1 115.1 56.1 184.2 0 6.8-0.2 13.6-0.6 20.3 34-33.9 55.8-89.8 55.8-154.1 0-105.8-59-188.7-134.4-188.7-39 0-73.6 22.2-97.9 58.2 19.5 3.3 38.5 10.2 56.6 20.7 24.3 14.2 46 34.2 64.4 59.4z" p-id="3201"></path></svg>